<svg width="50" height="50" viewBox="0 0 50 50" fill="none" xmlns="http://www.w3.org/2000/svg">
<path d="M8.19447 34.4444H41.5278V36.6667C41.5278 39.7349 39.0405 42.2222 35.9723 42.2222H13.75C10.6818 42.2222 8.19447 39.7349 8.19447 36.6667V34.4444Z" fill="#9CD9EC"/>
<rect x="8.75003" y="9.44444" width="32.2222" height="32.2222" rx="5" stroke="#80C5DA" stroke-width="1.11111"/>
<path d="M18.1945 7.77778V12.2222" stroke="#80C5DA" stroke-width="1.11111" stroke-linecap="round"/>
<path d="M31.5278 7.77778V12.2222" stroke="#80C5DA" stroke-width="1.11111" stroke-linecap="round"/>
<path d="M40.4164 11.5473C43.6977 11.9597 46.0872 13.2051 47.0482 15.2944L47.1566 15.5483C49.2733 20.9502 41.4022 29.6893 29.3402 35.2377L28.1927 35.7514C16.5411 40.8001 5.43418 40.9132 2.79626 35.9536L2.67419 35.7065C1.07208 32.2236 3.83314 27.2526 9.30505 22.6498V24.1186C8.38753 24.9331 7.56082 25.7528 6.8363 26.5688C5.29523 28.3045 4.24722 29.9771 3.72302 31.479C3.20149 32.9736 3.21861 34.23 3.68396 35.2416C4.14942 36.2532 5.09245 37.0831 6.56677 37.6596C8.0482 38.2388 9.99999 38.5323 12.3207 38.4916C16.9594 38.4103 22.8556 36.9985 28.8763 34.229C34.8972 31.4594 39.8058 27.9005 42.8861 24.4311C44.4271 22.6954 45.4742 21.0227 45.9984 19.5209C46.5199 18.0264 46.5035 16.7709 46.0384 15.7592C45.5731 14.7475 44.6301 13.9169 43.1556 13.3403C42.3699 13.0331 41.4517 12.8066 40.4164 12.6674V11.5473Z" fill="#80C5DA"/>
<path d="M20.2345 19.2311C21.6878 19.2311 24.5278 19.4844 24.5278 21.2311C24.5278 23.0178 22.0345 23.2178 20.5811 23.2578V24.6444H24.7545C24.9678 24.6444 25.1278 24.7378 25.1278 25.0044C25.1278 25.1644 24.9811 25.2844 24.7811 25.2844H15.6611C15.4345 25.2844 15.3278 25.1911 15.3278 25.0044C15.3278 24.7644 15.4478 24.6444 15.6878 24.6444H19.8745V23.2578C18.5145 23.2178 15.9145 23.0978 15.9145 21.2311C15.9145 19.4444 18.9678 19.2311 20.2345 19.2311ZM20.2345 19.8844C19.5411 19.8844 16.6211 20.0178 16.6211 21.2311C16.6211 22.6178 19.5011 22.6044 20.2345 22.6044C21.0611 22.6044 23.8211 22.6178 23.8211 21.2311C23.8211 19.8844 21.0611 19.8844 20.2345 19.8844ZM16.8078 26.3244V28.0444C16.8078 28.4844 16.8611 28.5111 17.2745 28.5111H24.2345C24.4478 28.5111 24.5545 28.5911 24.5545 28.8444C24.5545 29.0578 24.4478 29.1111 24.2345 29.1111H16.9145C16.3145 29.1111 16.0745 28.9644 16.0745 28.3111V26.3244C16.0745 26.1511 16.2078 25.9644 16.4211 25.9644C16.6211 25.9644 16.8078 26.1511 16.8078 26.3244ZM28.0436 19.0711C30.3103 19.0711 31.137 20.1911 31.137 21.5244C31.137 22.7111 30.377 23.9911 28.0436 23.9911C25.777 23.9911 24.8703 22.8711 24.8703 21.5244C24.8703 20.2444 25.6836 19.0711 28.0436 19.0711ZM28.0436 19.6711C26.177 19.6711 25.6036 20.7644 25.6036 21.5244C25.6036 22.4178 26.137 23.3644 28.0436 23.3644C29.8436 23.3644 30.4436 22.4578 30.4436 21.5244C30.4436 20.5111 29.9103 19.6711 28.0436 19.6711ZM32.8836 24.0711V19.4444C32.8836 19.1778 33.0703 19.0711 33.2436 19.0711C33.497 19.0711 33.617 19.1911 33.617 19.4444V24.0711C33.617 24.2711 33.4436 24.4578 33.2436 24.4578C33.0703 24.4578 32.8836 24.2178 32.8836 24.0711ZM26.3503 25.1378H32.8036C33.3503 25.1378 33.6303 25.1644 33.6303 25.7511V26.8444C33.6303 27.3644 33.5103 27.4444 32.9636 27.4444H27.057C26.8303 27.4444 26.777 27.4178 26.777 27.7378V28.4578C26.777 28.6311 26.8303 28.6178 27.0303 28.6178H33.617C33.7903 28.6178 33.9903 28.7511 34.0036 28.9778C34.0036 29.0978 33.8436 29.2978 33.6303 29.2978H26.6703C26.1503 29.2978 26.017 29.1911 26.017 28.6178V27.3911C26.017 26.8444 26.2036 26.8178 26.777 26.8178H32.5903C32.7903 26.8178 32.937 26.8711 32.937 26.6178V26.0444C32.937 25.7244 32.857 25.7511 32.577 25.7511H26.3503C26.097 25.7511 25.9636 25.6444 25.9636 25.4444C25.9636 25.1911 26.1236 25.1378 26.3503 25.1378Z" fill="#80C5DA"/>
</svg>
