<svg width="45" height="45" viewBox="0 0 45 45" fill="none" xmlns="http://www.w3.org/2000/svg">
<rect width="45" height="45" fill="white"/>
<path d="M7.37503 31H37.375V33C37.375 35.7614 35.1365 38 32.375 38H12.375C9.61361 38 7.37503 35.7614 7.37503 33V31Z" fill="#9CD9EC"/>
<rect x="7.87503" y="8.5" width="29" height="29" rx="4.5" stroke="black"/>
<path d="M16.375 7V11" stroke="black" stroke-linecap="round"/>
<path d="M28.375 7V11" stroke="black" stroke-linecap="round"/>
<path d="M36.3755 10.3926C39.3281 10.7638 41.4784 11.8845 42.3433 13.7646L42.4409 13.9941C44.3456 18.8559 37.2624 26.7213 26.4067 31.7148L25.3735 32.1758C14.887 36.7196 4.89121 36.8221 2.51709 32.3584L2.40674 32.1357C0.964784 29.001 3.45039 24.5273 8.37549 20.3848V21.7051C7.54937 22.4383 6.80514 23.1765 6.15283 23.9111C4.76578 25.4734 3.82283 26.9794 3.35107 28.3311C2.88159 29.6764 2.89608 30.8072 3.31494 31.7178C3.73384 32.6282 4.58273 33.3746 5.90967 33.8936C7.24303 34.4149 9.00044 34.6792 11.0894 34.6426C15.2641 34.5692 20.5704 33.299 25.9888 30.8066C31.4075 28.314 35.8259 25.1107 38.5981 21.9883C39.9849 20.4263 40.9271 18.9208 41.3989 17.5693C41.8684 16.2241 41.8538 15.0932 41.4351 14.1826C41.0162 13.272 40.1674 12.5248 38.8403 12.0059C38.1333 11.7294 37.307 11.5258 36.3755 11.4004V10.3926Z" fill="black"/>
<path d="M18.211 17.408C19.519 17.408 22.075 17.636 22.075 19.208C22.075 20.816 19.831 20.996 18.523 21.032V22.28H22.279C22.471 22.28 22.615 22.364 22.615 22.604C22.615 22.748 22.483 22.856 22.303 22.856H14.095C13.891 22.856 13.795 22.772 13.795 22.604C13.795 22.388 13.903 22.28 14.119 22.28H17.887V21.032C16.663 20.996 14.323 20.888 14.323 19.208C14.323 17.6 17.071 17.408 18.211 17.408ZM18.211 17.996C17.587 17.996 14.959 18.116 14.959 19.208C14.959 20.456 17.551 20.444 18.211 20.444C18.955 20.444 21.439 20.456 21.439 19.208C21.439 17.996 18.955 17.996 18.211 17.996ZM15.127 23.792V25.34C15.127 25.736 15.175 25.76 15.547 25.76H21.811C22.003 25.76 22.099 25.832 22.099 26.06C22.099 26.252 22.003 26.3 21.811 26.3H15.223C14.683 26.3 14.467 26.168 14.467 25.58V23.792C14.467 23.636 14.587 23.468 14.779 23.468C14.959 23.468 15.127 23.636 15.127 23.792ZM25.2393 17.264C27.2793 17.264 28.0233 18.272 28.0233 19.472C28.0233 20.54 27.3393 21.692 25.2393 21.692C23.1993 21.692 22.3833 20.684 22.3833 19.472C22.3833 18.32 23.1153 17.264 25.2393 17.264ZM25.2393 17.804C23.5593 17.804 23.0433 18.788 23.0433 19.472C23.0433 20.276 23.5233 21.128 25.2393 21.128C26.8593 21.128 27.3993 20.312 27.3993 19.472C27.3993 18.56 26.9193 17.804 25.2393 17.804ZM29.5953 21.764V17.6C29.5953 17.36 29.7633 17.264 29.9193 17.264C30.1473 17.264 30.2553 17.372 30.2553 17.6V21.764C30.2553 21.944 30.0993 22.112 29.9193 22.112C29.7633 22.112 29.5953 21.896 29.5953 21.764ZM23.7153 22.724H29.5233C30.0153 22.724 30.2673 22.748 30.2673 23.276V24.26C30.2673 24.728 30.1593 24.8 29.6673 24.8H24.3513C24.1473 24.8 24.0993 24.776 24.0993 25.064V25.712C24.0993 25.868 24.1473 25.856 24.3273 25.856H30.2553C30.4113 25.856 30.5913 25.976 30.6033 26.18C30.6033 26.288 30.4593 26.468 30.2673 26.468H24.0033C23.5353 26.468 23.4153 26.372 23.4153 25.856V24.752C23.4153 24.26 23.5833 24.236 24.0993 24.236H29.3313C29.5113 24.236 29.6433 24.284 29.6433 24.056V23.54C29.6433 23.252 29.5713 23.276 29.3193 23.276H23.7153C23.4873 23.276 23.3673 23.18 23.3673 23C23.3673 22.772 23.5113 22.724 23.7153 22.724Z" fill="black"/>
</svg>
