<svg width="41" height="32" viewBox="0 0 41 32" fill="none" xmlns="http://www.w3.org/2000/svg">
<rect x="5.37503" y="2" width="30" height="30" rx="5" fill="white"/>
<path d="M5.37503 25H35.375V27C35.375 29.7614 33.1365 32 30.375 32H10.375C7.61361 32 5.37503 29.7614 5.37503 27V25Z" fill="#9CD9EC"/>
<rect x="5.87503" y="2.5" width="29" height="29" rx="4.5" stroke="black"/>
<path d="M14.375 1V5" stroke="black" stroke-linecap="round"/>
<path d="M26.375 1V5" stroke="black" stroke-linecap="round"/>
<path d="M34.375 4.39258C37.3277 4.76369 39.4777 5.88452 40.3427 7.76465L40.4414 7.99414C42.3459 12.8559 35.2618 20.7213 24.4062 25.7148L23.374 26.1758C12.8873 30.7198 2.89072 30.8222 0.516572 26.3584L0.407197 26.1357C-1.03473 23.0011 1.45008 18.5272 6.37497 14.3848V15.7061C5.54908 16.4391 4.80447 17.1766 4.15231 17.9111C2.76522 19.4735 1.82229 20.9793 1.35056 22.3311C0.881073 23.6764 0.89654 24.8072 1.3154 25.7178C1.73429 26.628 2.58254 27.3747 3.90915 27.8936C5.2425 28.4149 6.99994 28.6792 9.08884 28.6426C13.2635 28.5693 18.5699 27.299 23.9883 24.8066C29.407 22.314 33.8263 19.1107 36.5986 15.9883C37.9853 14.4263 38.9276 12.9208 39.3994 11.5693C39.8689 10.224 39.8534 9.09317 39.4345 8.18262C39.0157 7.27214 38.1677 6.5248 36.8408 6.00586C36.1336 5.72932 35.3068 5.52577 34.375 5.40039V4.39258Z" fill="black"/>
<path d="M16.211 11.408C17.519 11.408 20.075 11.636 20.075 13.208C20.075 14.816 17.831 14.996 16.523 15.032V16.28H20.279C20.471 16.28 20.615 16.364 20.615 16.604C20.615 16.748 20.483 16.856 20.303 16.856H12.095C11.891 16.856 11.795 16.772 11.795 16.604C11.795 16.388 11.903 16.28 12.119 16.28H15.887V15.032C14.663 14.996 12.323 14.888 12.323 13.208C12.323 11.6 15.071 11.408 16.211 11.408ZM16.211 11.996C15.587 11.996 12.959 12.116 12.959 13.208C12.959 14.456 15.551 14.444 16.211 14.444C16.955 14.444 19.439 14.456 19.439 13.208C19.439 11.996 16.955 11.996 16.211 11.996ZM13.127 17.792V19.34C13.127 19.736 13.175 19.76 13.547 19.76H19.811C20.003 19.76 20.099 19.832 20.099 20.06C20.099 20.252 20.003 20.3 19.811 20.3H13.223C12.683 20.3 12.467 20.168 12.467 19.58V17.792C12.467 17.636 12.587 17.468 12.779 17.468C12.959 17.468 13.127 17.636 13.127 17.792ZM23.2393 11.264C25.2793 11.264 26.0233 12.272 26.0233 13.472C26.0233 14.54 25.3393 15.692 23.2393 15.692C21.1993 15.692 20.3833 14.684 20.3833 13.472C20.3833 12.32 21.1153 11.264 23.2393 11.264ZM23.2393 11.804C21.5593 11.804 21.0433 12.788 21.0433 13.472C21.0433 14.276 21.5233 15.128 23.2393 15.128C24.8593 15.128 25.3993 14.312 25.3993 13.472C25.3993 12.56 24.9193 11.804 23.2393 11.804ZM27.5953 15.764V11.6C27.5953 11.36 27.7633 11.264 27.9193 11.264C28.1473 11.264 28.2553 11.372 28.2553 11.6V15.764C28.2553 15.944 28.0993 16.112 27.9193 16.112C27.7633 16.112 27.5953 15.896 27.5953 15.764ZM21.7153 16.724H27.5233C28.0153 16.724 28.2673 16.748 28.2673 17.276V18.26C28.2673 18.728 28.1593 18.8 27.6673 18.8H22.3513C22.1473 18.8 22.0993 18.776 22.0993 19.064V19.712C22.0993 19.868 22.1473 19.856 22.3273 19.856H28.2553C28.4113 19.856 28.5913 19.976 28.6033 20.18C28.6033 20.288 28.4593 20.468 28.2673 20.468H22.0033C21.5353 20.468 21.4153 20.372 21.4153 19.856V18.752C21.4153 18.26 21.5833 18.236 22.0993 18.236H27.3313C27.5113 18.236 27.6433 18.284 27.6433 18.056V17.54C27.6433 17.252 27.5713 17.276 27.3193 17.276H21.7153C21.4873 17.276 21.3673 17.18 21.3673 17C21.3673 16.772 21.5113 16.724 21.7153 16.724Z" fill="black"/>
</svg>
