<svg width="251" height="250" viewBox="0 0 251 250" fill="none" xmlns="http://www.w3.org/2000/svg">
<path d="M41.4722 172.222H208.139V183.333C208.139 198.675 195.702 211.111 180.361 211.111H69.25C53.9088 211.111 41.4722 198.675 41.4722 183.333V172.222Z" fill="#9CD9EC"/>
<rect x="44.25" y="47.2222" width="161.111" height="161.111" rx="25" stroke="#80C5DA" stroke-width="5.55556"/>
<path d="M91.4722 38.8889V61.1111" stroke="#80C5DA" stroke-width="5.55556" stroke-linecap="round"/>
<path d="M158.139 38.8889V61.1111" stroke="#80C5DA" stroke-width="5.55556" stroke-linecap="round"/>
<path d="M202.584 57.7326C218.99 59.7944 230.937 66.0237 235.742 76.4699L236.021 77.1037C247.49 104.059 207.993 148.228 147.204 176.191L145.768 176.847C85.4847 204.172 27.0707 205.196 14.1687 179.155L13.8709 178.53C5.85949 161.113 19.6628 136.25 47.0281 113.235V120.575C42.4366 124.65 38.3046 128.758 34.6795 132.841C26.9733 141.521 21.7367 149.886 19.116 157.396C16.5078 164.87 16.5909 171.149 18.9177 176.207C21.2448 181.266 25.9584 185.415 33.3308 188.298C40.7384 191.195 50.4979 192.662 62.1033 192.458C85.2971 192.052 114.778 184.993 144.883 171.145C174.987 157.297 199.531 139.504 214.932 122.157C222.639 113.478 227.875 105.112 230.496 97.6028C233.104 90.1286 233.021 83.8499 230.694 78.7912C228.367 73.7326 223.653 69.5835 216.281 66.7004C212.352 65.1639 207.761 64.0292 202.584 63.3332V57.7326Z" fill="#80C5DA"/>
<path d="M101.672 95.1556C108.939 95.1556 123.139 96.4222 123.139 105.156C123.139 114.089 110.672 115.089 103.406 115.289V122.222H124.272C125.339 122.222 126.139 122.689 126.139 124.022C126.139 124.822 125.406 125.422 124.406 125.422H78.8055C77.6722 125.422 77.1389 124.956 77.1389 124.022C77.1389 122.822 77.7389 122.222 78.9389 122.222H99.8722V115.289C93.0722 115.089 80.0722 114.489 80.0722 105.156C80.0722 96.2222 95.3389 95.1556 101.672 95.1556ZM101.672 98.4222C98.2055 98.4222 83.6055 99.0889 83.6055 105.156C83.6055 112.089 98.0055 112.022 101.672 112.022C105.806 112.022 119.606 112.089 119.606 105.156C119.606 98.4222 105.806 98.4222 101.672 98.4222ZM84.5389 130.622V139.222C84.5389 141.422 84.8055 141.556 86.8722 141.556H121.672C122.739 141.556 123.272 141.956 123.272 143.222C123.272 144.289 122.739 144.556 121.672 144.556H85.0722C82.0722 144.556 80.8722 143.822 80.8722 140.556V130.622C80.8722 129.756 81.5389 128.822 82.6055 128.822C83.6055 128.822 84.5389 129.756 84.5389 130.622ZM140.718 94.3556C152.051 94.3556 156.185 99.9556 156.185 106.622C156.185 112.556 152.385 118.956 140.718 118.956C129.385 118.956 124.851 113.356 124.851 106.622C124.851 100.222 128.918 94.3556 140.718 94.3556ZM140.718 97.3556C131.385 97.3556 128.518 102.822 128.518 106.622C128.518 111.089 131.185 115.822 140.718 115.822C149.718 115.822 152.718 111.289 152.718 106.622C152.718 101.556 150.051 97.3556 140.718 97.3556ZM164.918 119.356V96.2222C164.918 94.8889 165.851 94.3556 166.718 94.3556C167.985 94.3556 168.585 94.9556 168.585 96.2222V119.356C168.585 120.356 167.718 121.289 166.718 121.289C165.851 121.289 164.918 120.089 164.918 119.356ZM132.251 124.689H164.518C167.251 124.689 168.651 124.822 168.651 127.756V133.222C168.651 135.822 168.051 136.222 165.318 136.222H135.785C134.651 136.222 134.385 136.089 134.385 137.689V141.289C134.385 142.156 134.651 142.089 135.651 142.089H168.585C169.451 142.089 170.451 142.756 170.518 143.889C170.518 144.489 169.718 145.489 168.651 145.489H133.851C131.251 145.489 130.585 144.956 130.585 142.089V135.956C130.585 133.222 131.518 133.089 134.385 133.089H163.451C164.451 133.089 165.185 133.356 165.185 132.089V129.222C165.185 127.622 164.785 127.756 163.385 127.756H132.251C130.985 127.756 130.318 127.222 130.318 126.222C130.318 124.956 131.118 124.689 132.251 124.689Z" fill="#80C5DA"/>
</svg>
